<?xml version="1.0" encoding="UTF-8" standalone="no"?>
<!-- Generator: Adobe Illustrator 19.0.0, SVG Export Plug-In . SVG Version: 6.00 Build 0)  -->

<svg
   xmlns:dc="http://purl.org/dc/elements/1.1/"
   xmlns:cc="http://creativecommons.org/ns#"
   xmlns:rdf="http://www.w3.org/1999/02/22-rdf-syntax-ns#"
   xmlns:svg="http://www.w3.org/2000/svg"
   xmlns="http://www.w3.org/2000/svg"
   xmlns:sodipodi="http://sodipodi.sourceforge.net/DTD/sodipodi-0.dtd"
   xmlns:inkscape="http://www.inkscape.org/namespaces/inkscape"
   version="1.1"
   id="Capa_1"
   x="0px"
   y="0px"
   viewBox="0 0 70.517998 83.313278"
   xml:space="preserve"
   width="70.517998"
   height="83.313278"
   sodipodi:docname="goal.svg"
   inkscape:version="0.92.3 (2405546, 2018-03-11)"><metadata
   id="metadata3860"><rdf:RDF><cc:Work
       rdf:about=""><dc:format>image/svg+xml</dc:format><dc:type
         rdf:resource="http://purl.org/dc/dcmitype/StillImage" /><dc:title></dc:title></cc:Work></rdf:RDF></metadata><defs
   id="defs3858" /><sodipodi:namedview
   pagecolor="#ffffff"
   bordercolor="#666666"
   borderopacity="1"
   objecttolerance="10"
   gridtolerance="10"
   guidetolerance="10"
   inkscape:pageopacity="0"
   inkscape:pageshadow="2"
   inkscape:window-width="1822"
   inkscape:window-height="1051"
   id="namedview3856"
   showgrid="false"
   scale-x="0.7"
   fit-margin-bottom="-0.3"
   fit-margin-top="0"
   fit-margin-left="0"
   fit-margin-right="0"
   inkscape:zoom="0.4609375"
   inkscape:cx="-409.48676"
   inkscape:cy="215.06595"
   inkscape:window-x="-9"
   inkscape:window-y="-9"
   inkscape:window-maximized="1"
   inkscape:current-layer="Capa_1" />
<g
   id="g3823"
   transform="matrix(0.16330718,0,0,0.16330718,-6.5476381,0)"
   style="fill:#00ccff">
	<g
   id="g3821"
   style="fill:#00ccff">
		<path
   d="M 271,162 V 101 H 391 V 0 H 241 c 0,17.497 0,144.121 0,162.001 C 229.553,181.943 47.321,499.41 40.094,512 H 471.906 C 346.582,293.664 272.321,164.3 271,162 Z m 0,202.75 C 271,338.145 249.355,316.5 222.75,316.5 H 186.906 L 256,196.131 363.274,383.01 H 289.25 c -10.081,0 -18.25,-8.161 -18.25,-18.26 z"
   id="path3819"
   inkscape:connector-curvature="0"
   style="fill:#00ccff" />
	</g>
</g>
<g
   id="g3825"
   transform="matrix(0.16330718,0,0,0.16330718,-6.5476381,0)"
   style="fill:#00ccff">
</g>
<g
   id="g3827"
   transform="matrix(0.16330718,0,0,0.16330718,-6.5476381,0)"
   style="fill:#00ccff">
</g>
<g
   id="g3829"
   transform="matrix(0.16330718,0,0,0.16330718,-6.5476381,0)"
   style="fill:#00ccff">
</g>
<g
   id="g3831"
   transform="matrix(0.16330718,0,0,0.16330718,-6.5476381,0)"
   style="fill:#00ccff">
</g>
<g
   id="g3833"
   transform="matrix(0.16330718,0,0,0.16330718,-6.5476381,0)"
   style="fill:#00ccff">
</g>
<g
   id="g3835"
   transform="matrix(0.16330718,0,0,0.16330718,-6.5476381,0)"
   style="fill:#00ccff">
</g>
<g
   id="g3837"
   transform="matrix(0.16330718,0,0,0.16330718,-6.5476381,0)"
   style="fill:#00ccff">
</g>
<g
   id="g3839"
   transform="matrix(0.16330718,0,0,0.16330718,-6.5476381,0)"
   style="fill:#00ccff">
</g>
<g
   id="g3841"
   transform="matrix(0.16330718,0,0,0.16330718,-6.5476381,0)"
   style="fill:#00ccff">
</g>
<g
   id="g3843"
   transform="matrix(0.16330718,0,0,0.16330718,-6.5476381,0)"
   style="fill:#00ccff">
</g>
<g
   id="g3845"
   transform="matrix(0.16330718,0,0,0.16330718,-6.5476381,0)"
   style="fill:#00ccff">
</g>
<g
   id="g3847"
   transform="matrix(0.16330718,0,0,0.16330718,-6.5476381,0)"
   style="fill:#00ccff">
</g>
<g
   id="g3849"
   transform="matrix(0.16330718,0,0,0.16330718,-6.5476381,0)"
   style="fill:#00ccff">
</g>
<g
   id="g3851"
   transform="matrix(0.16330718,0,0,0.16330718,-6.5476381,0)"
   style="fill:#00ccff">
</g>
<g
   id="g3853"
   transform="matrix(0.16330718,0,0,0.16330718,-6.5476381,0)"
   style="fill:#00ccff">
</g>
</svg>